<svg xmlns="http://www.w3.org/2000/svg" version="1.1" viewBox="0.00 0.00 1024.00 1024.00">
<g fill="none" stroke-linecap="butt" stroke-width="2.00">
<path d="M 386.38 347.87
  C 361.77 366.64 341.21 392.60 329.00 421.47
  C 325.80 429.03 322.80 439.75 330.23 446.22
  C 335.26 450.61 342.85 451.33 347.99 447.20
  C 354.11 442.29 356.91 435.61 360.97 427.47
  C 379.38 390.55 412.91 362.27 451.37 347.88
  Q 468.71 341.38 482.73 338.46
  C 510.10 332.76 538.90 334.61 565.43 344.59
  Q 578.44 349.49 584.47 352.27
  Q 619.27 368.32 643.44 397.63
  C 654.96 411.59 664.21 428.41 671.84 445.19
  Q 672.60 446.87 672.97 448.31
  A 0.50 0.49 -2.7 0 1 672.41 448.92
  Q 667.54 448.17 662.28 446.51
  Q 648.60 442.19 621.90 433.22
  C 618.05 431.93 611.32 430.53 607.84 432.30
  Q 594.81 438.94 597.43 452.96
  C 598.71 459.77 605.33 462.21 611.16 464.11
  C 633.83 471.49 666.33 481.91 698.14 492.56
  Q 705.45 495.00 712.02 491.78
  C 719.89 487.92 722.85 482.28 724.77 474.29
  Q 731.75 445.25 740.28 408.96
  C 742.48 399.62 744.98 391.02 746.89 382.69
  C 748.94 373.72 745.55 363.75 735.47 362.57
  C 722.78 361.08 718.86 371.28 716.24 381.26
  Q 708.40 411.25 703.29 432.53
  Q 702.96 433.89 702.31 435.00
  A 0.65 0.65 0.0 0 1 701.15 434.91
  C 697.33 425.24 693.54 415.70 688.54 407.61
  Q 685.84 403.26 680.84 395.25
  Q 668.81 376.03 653.46 361.54
  C 630.64 339.99 603.36 322.63 573.20 313.35
  Q 558.82 308.92 550.44 307.35
  Q 489.96 296.02 433.90 320.14
  Q 408.26 331.17 386.38 347.87" stroke="#f68f90" vector-effect="non-scaling-stroke" data-index="0" style="opacity: 1;"></path>
<path d="M 358.85 554.34
  Q 360.75 555.65 361.98 556.02
  Q 381.31 561.81 405.25 570.01
  C 413.05 572.69 421.21 574.78 428.19 569.71
  Q 434.06 565.44 434.86 558.24
  C 435.93 548.50 430.00 544.76 421.92 542.11
  Q 404.97 536.54 343.06 516.20
  C 339.62 515.07 334.45 513.36 330.57 513.25
  C 318.38 512.88 310.02 520.49 306.99 532.26
  Q 301.57 553.27 295.07 579.61
  Q 292.99 588.05 284.19 621.22
  Q 282.91 626.07 283.69 631.40
  A 3.71 3.61 -62.7 0 0 284.03 632.52
  Q 288.31 641.38 296.71 642.14
  Q 306.99 643.07 311.79 633.88
  C 315.01 627.73 316.63 620.17 318.02 615.11
  Q 319.76 608.79 325.77 582.94
  C 326.97 577.76 327.29 573.56 329.10 571.61
  A 1.27 1.27 0.0 0 1 331.03 571.69
  Q 331.91 572.80 332.42 574.34
  Q 342.98 605.93 363.75 629.74
  C 384.25 653.24 409.33 673.66 437.97 685.98
  Q 458.56 694.84 478.38 699.07
  Q 531.63 710.45 583.99 691.75
  C 590.10 689.57 599.93 685.75 607.07 682.23
  Q 656.04 658.03 685.35 612.12
  C 690.59 603.92 695.37 594.51 699.60 585.88
  Q 701.95 581.08 702.39 576.78
  C 703.21 568.84 699.31 560.89 691.39 558.55
  Q 686.77 557.18 682.72 558.81
  C 675.96 561.54 673.54 567.67 669.46 575.45
  Q 667.45 579.28 658.08 594.48
  Q 651.60 604.98 645.04 612.34
  Q 629.84 629.35 616.45 638.69
  Q 584.26 661.12 544.83 668.60
  Q 523.70 672.61 503.51 670.58
  Q 474.99 667.72 447.43 654.63
  Q 429.45 646.08 411.71 631.62
  Q 389.59 613.60 374.78 590.51
  C 367.77 579.58 362.73 567.36 358.38 554.70
  A 0.31 0.31 0.0 0 1 358.85 554.34" stroke="#81df9e" vector-effect="non-scaling-stroke" data-index="1"></path>
</g>

<path d="M 329.00 421.47
  C 341.21 392.60 361.77 366.64 386.38 347.87
  Q 408.26 331.17 433.90 320.14
  Q 489.96 296.02 550.44 307.35
  Q 558.82 308.92 573.20 313.35
  C 603.36 322.63 630.64 339.99 653.46 361.54
  Q 668.81 376.03 680.84 395.25
  Q 685.84 403.26 688.54 407.61
  C 693.54 415.70 697.33 425.24 701.15 434.91
  A 0.65 0.65 0.0 0 0 702.31 435.00
  Q 702.96 433.89 703.29 432.53
  Q 708.40 411.25 716.24 381.26
  C 718.86 371.28 722.78 361.08 735.47 362.57
  C 745.55 363.75 748.94 373.72 746.89 382.69
  C 744.98 391.02 742.48 399.62 740.28 408.96
  Q 731.75 445.25 724.77 474.29
  C 722.85 482.28 719.89 487.92 712.02 491.78
  Q 705.45 495.00 698.14 492.56
  C 666.33 481.91 633.83 471.49 611.16 464.11
  C 605.33 462.21 598.71 459.77 597.43 452.96
  Q 594.81 438.94 607.84 432.30
  C 611.32 430.53 618.05 431.93 621.90 433.22
  Q 648.60 442.19 662.28 446.51
  Q 667.54 448.17 672.41 448.92
  A 0.50 0.49 -2.7 0 0 672.97 448.31
  Q 672.60 446.87 671.84 445.19
  C 664.21 428.41 654.96 411.59 643.44 397.63
  Q 619.27 368.32 584.47 352.27
  Q 578.44 349.49 565.43 344.59
  C 538.90 334.61 510.10 332.76 482.73 338.46
  Q 468.71 341.38 451.37 347.88
  C 412.91 362.27 379.38 390.55 360.97 427.47
  C 356.91 435.61 354.11 442.29 347.99 447.20
  C 342.85 451.33 335.26 450.61 330.23 446.22
  C 322.80 439.75 325.80 429.03 329.00 421.47
  Z" fill="#ed1e20" data-index="3" style="opacity: 1;"></path>
<path d="M 358.85 554.34
  A 0.31 0.31 0.0 0 0 358.38 554.70
  C 362.73 567.36 367.77 579.58 374.78 590.51
  Q 389.59 613.60 411.71 631.62
  Q 429.45 646.08 447.43 654.63
  Q 474.99 667.72 503.51 670.58
  Q 523.70 672.61 544.83 668.60
  Q 584.26 661.12 616.45 638.69
  Q 629.84 629.35 645.04 612.34
  Q 651.60 604.98 658.08 594.48
  Q 667.45 579.28 669.46 575.45
  C 673.54 567.67 675.96 561.54 682.72 558.81
  Q 686.77 557.18 691.39 558.55
  C 699.31 560.89 703.21 568.84 702.39 576.78
  Q 701.95 581.08 699.60 585.88
  C 695.37 594.51 690.59 603.92 685.35 612.12
  Q 656.04 658.03 607.07 682.23
  C 599.93 685.75 590.10 689.57 583.99 691.75
  Q 531.63 710.45 478.38 699.07
  Q 458.56 694.84 437.97 685.98
  C 409.33 673.66 384.25 653.24 363.75 629.74
  Q 342.98 605.93 332.42 574.34
  Q 331.91 572.80 331.03 571.69
  A 1.27 1.27 0.0 0 0 329.10 571.61
  C 327.29 573.56 326.97 577.76 325.77 582.94
  Q 319.76 608.79 318.02 615.11
  C 316.63 620.17 315.01 627.73 311.79 633.88
  Q 306.99 643.07 296.71 642.14
  Q 288.31 641.38 284.03 632.52
  A 3.71 3.61 -62.7 0 1 283.69 631.40
  Q 282.91 626.07 284.19 621.22
  Q 292.99 588.05 295.07 579.61
  Q 301.57 553.27 306.99 532.26
  C 310.02 520.49 318.38 512.88 330.57 513.25
  C 334.45 513.36 339.62 515.07 343.06 516.20
  Q 404.97 536.54 421.92 542.11
  C 430.00 544.76 435.93 548.50 434.86 558.24
  Q 434.06 565.44 428.19 569.71
  C 421.21 574.78 413.05 572.69 405.25 570.01
  Q 381.31 561.81 361.98 556.02
  Q 360.75 555.65 358.85 554.34
  Z" fill="#03bf3c" data-index="4"></path>
</svg>